<svg xmlns="http://www.w3.org/2000/svg" version="1.1" xmlns:xlink="http://www.w3.org/1999/xlink" xmlns:svgjs="http://svgjs.dev/svgjs" width="1920" height="1080" preserveAspectRatio="none" viewBox="0 0 1920 1080">
    <g mask="url(&quot;#SvgjsMask1027&quot;)" fill="none">
        <rect width="1920" height="1080" x="0" y="0" fill="rgba(209, 199, 191, 0.52)"></rect>
        <path d="M0,721.672C130.895,699.449,218.02,584.169,324.186,504.444C421.656,431.249,532.729,376.113,597.594,272.912C668.088,160.755,708.687,31.061,704.953,-101.357C700.944,-243.528,659.537,-383.973,575.828,-498.958C487.805,-619.869,369.252,-727.373,223.819,-762.257C80.91,-796.535,-58.565,-720.603,-201.235,-685.344C-351.246,-648.27,-541.63,-673.334,-634.801,-550.058C-728.549,-426.018,-657.446,-248.509,-648.718,-93.272C-641.707,31.42,-628.943,150.629,-588.757,268.876C-544.523,399.033,-512.562,544.199,-403.593,628.004C-291.855,713.939,-138.973,745.266,0,721.672" fill="rgba(151, 128, 110, 0.52)"></path>
        <path d="M1920 1833.277C2062.843 1839.367 2210.327 1793.6190000000001 2318.633 1700.2849999999999 2421.391 1611.732 2461.267 1473.196 2491.3379999999997 1340.921 2517.0860000000002 1227.659 2502.143 1113.379 2477.88 999.789 2455.054 892.924 2420.537 790.504 2355.078 703.0029999999999 2286.027 610.7 2206.474 512.818 2094.161 486.861 1983.278 461.23400000000004 1882.161 551.092 1769.571 567.685 1631.507 588.0319999999999 1459.54 496.9 1360.296 595.0129999999999 1263.086 691.114 1324.411 859.888 1336.245 996.069 1345.7559999999999 1105.522 1389.9009999999998 1202.328 1422.194 1307.34 1460.143 1430.745 1453.878 1573.435 1542.629 1667.201 1639.056 1769.077 1779.853 1827.3020000000001 1920 1833.277" fill="rgba(255, 255, 255, 0.52)"></path>
    </g>
    <defs>
        <mask id="SvgjsMask1027">
            <rect width="1920" height="1080" fill="#ffffff"></rect>
        </mask>
    </defs>
</svg>