<svg xmlns="http://www.w3.org/2000/svg" width="1920" height="1080" preserveAspectRatio="none"><g fill="none" mask="url(&quot;#a&quot;)"><path fill="rgba(209, 199, 191, 0.52)" d="M0 0h1920v1080H0z"/><path fill="rgba(151, 128, 110, 0.52)" d="M0 721.672c130.895-22.223 218.02-137.503 324.186-217.228 97.47-73.195 208.543-128.331 273.408-231.532 70.494-112.157 111.093-241.851 107.359-374.269-4.009-142.171-45.416-282.616-129.125-397.601-88.023-120.911-206.576-228.415-352.009-263.299-142.909-34.278-282.384 41.654-425.054 76.913-150.011 37.074-340.395 12.01-433.566 135.286-93.748 124.04-22.645 301.549-13.917 456.786 7.011 124.692 19.775 243.901 59.961 362.148 44.234 130.157 76.195 275.323 185.164 359.128C-291.855 713.939-138.973 745.266 0 721.672"/><path fill="rgba(255, 255, 255, 0.52)" d="M1920 1833.277c142.843 6.09 290.327-39.658 398.633-132.992 102.758-88.553 142.634-227.089 172.705-359.364 25.748-113.262 10.805-227.542-13.458-341.132-22.826-106.865-57.343-209.285-122.802-296.786-69.051-92.303-148.604-190.185-260.917-216.142-110.883-25.627-212 64.231-324.59 80.824-138.064 20.347-310.031-70.785-409.275 27.328-97.21 96.101-35.885 264.875-24.051 401.056 9.511 109.453 53.656 206.259 85.949 311.271 37.949 123.405 31.684 266.095 120.435 359.861 96.427 101.876 237.224 160.101 377.371 166.076"/></g><defs><mask id="a"><path fill="#fff" d="M0 0h1920v1080H0z"/></mask></defs></svg>