<svg xmlns="http://www.w3.org/2000/svg" version="1.1" xmlns:xlink="http://www.w3.org/1999/xlink" xmlns:svgjs="http://svgjs.dev/svgjs" width="1920" height="1080" preserveAspectRatio="none" viewBox="0 0 1920 1080"><g mask="url(&quot;#SvgjsMask1053&quot;)" fill="none"><rect width="1920" height="1080" x="0" y="0" fill="#0e2a47"></rect><path d="M1927.9522414017204 509.4433582708638L1773.1289109508275 613.8730132659005 1877.558565945864 768.6963437167931 2032.381896396757 664.2666887217566z" fill="rgba(68, 117, 152, 0.51)" class="triangle-float3"></path><path d="M-137.83 114.91 a255.56 255.56 0 1 0 511.12 0 a255.56 255.56 0 1 0 -511.12 0z" fill="rgba(68, 117, 152, 0.51)" class="triangle-float1"></path><path d="M1360.5462670696027 404.78767837672507L1166.1389696631832 467.9544383954792 1358.0927583945243 727.9820044957314z" fill="rgba(68, 117, 152, 0.51)" class="triangle-float3"></path><path d="M1237.47 796.58 a285.92 285.92 0 1 0 571.84 0 a285.92 285.92 0 1 0 -571.84 0z" fill="rgba(68, 117, 152, 0.51)" class="triangle-float3"></path><path d="M1308.448,418.608C1346.172,420.057,1383.87,402.996,1402.296,370.046C1420.355,337.752,1414.181,297.418,1393.3,266.873C1374.861,239.901,1341.079,231.14,1308.448,232.767C1278.92,234.239,1252.83,249.637,1237.082,274.659C1220.092,301.655,1212.137,334.709,1226.305,363.287C1242.021,394.987,1273.092,417.25,1308.448,418.608" fill="rgba(68, 117, 152, 0.51)" class="triangle-float2"></path><path d="M941.8439248428828 326.1079274921484L1050.5661322577566 446.85617168696274 1177.3273948425413 223.39873846724458z" fill="rgba(68, 117, 152, 0.51)" class="triangle-float1"></path><path d="M722.073,600.719C781.601,603.176,839.487,572.436,868.099,520.177C895.742,469.688,881.878,410.06,854.045,359.675C825.035,307.159,782.012,258.453,722.073,255.83C658.281,253.038,597.01,290.066,568.455,347.178C542.253,399.585,565.169,458.816,595.531,508.928C624.473,556.695,666.269,598.416,722.073,600.719" fill="rgba(68, 117, 152, 0.51)" class="triangle-float2"></path><path d="M888.478349792563 43.822137498751836L737.7914740624713 145.46171855507504 965.594283512002 320.67224162205105z" fill="rgba(68, 117, 152, 0.51)" class="triangle-float3"></path><path d="M1070.437,1083.488C1122.275,1084.67,1177.923,1073.127,1204.886,1028.838C1232.692,983.165,1221.506,925.739,1194.616,879.52C1167.903,833.605,1123.543,798.955,1070.437,797.746C1015.317,796.491,962.693,825.357,936.061,873.632C910.236,920.446,917.377,977.913,946.208,1022.938C972.833,1064.518,1021.076,1082.362,1070.437,1083.488" fill="rgba(68, 117, 152, 0.51)" class="triangle-float2"></path><path d="M176.448,588.553C247.512,589.887,310.234,550.76,350.497,492.187C398.149,422.864,444.413,334.102,400.805,262.166C357.929,191.437,259.146,203.659,176.448,205.074C97.478,206.425,4.677,201.327,-34.992,269.624C-74.751,338.076,-30.382,419.88,13.36,485.858C51.407,543.247,107.605,587.261,176.448,588.553" fill="rgba(68, 117, 152, 0.51)" class="triangle-float1"></path><path d="M1406.93 288.09 a266.2 266.2 0 1 0 532.4 0 a266.2 266.2 0 1 0 -532.4 0z" fill="rgba(68, 117, 152, 0.51)" class="triangle-float1"></path><path d="M1013.16 741.52 a329.31 329.31 0 1 0 658.62 0 a329.31 329.31 0 1 0 -658.62 0z" fill="rgba(68, 117, 152, 0.51)" class="triangle-float2"></path><path d="M1631.0051478646913 301.71142479460616L1320.3811949583453 143.06754854567544 1331.0219865113847 447.7799505892218z" fill="rgba(68, 117, 152, 0.51)" class="triangle-float1"></path><path d="M1268.3909704872797 1016.6261873213368L1412.8391540984662 972.463945710423 1274.3716998765021 777.8727910990999z" fill="rgba(68, 117, 152, 0.51)" class="triangle-float1"></path></g><defs><mask id="SvgjsMask1053"><rect width="1920" height="1080" fill="#ffffff"></rect></mask><style>
                @keyframes float1 {
                    0%{transform: translate(0, 0)}
                    50%{transform: translate(-10px, 0)}
                    100%{transform: translate(0, 0)}
                }

                .triangle-float1 {
                    animation: float1 5s infinite;
                }

                @keyframes float2 {
                    0%{transform: translate(0, 0)}
                    50%{transform: translate(-5px, -5px)}
                    100%{transform: translate(0, 0)}
                }

                .triangle-float2 {
                    animation: float2 4s infinite;
                }

                @keyframes float3 {
                    0%{transform: translate(0, 0)}
                    50%{transform: translate(0, -10px)}
                    100%{transform: translate(0, 0)}
                }

                .triangle-float3 {
                    animation: float3 6s infinite;
                }
            </style></defs></svg>