<svg xmlns="http://www.w3.org/2000/svg" version="1.1" xmlns:xlink="http://www.w3.org/1999/xlink" xmlns:svgjs="http://svgjs.dev/svgjs" width="1920" height="1080" preserveAspectRatio="none" viewBox="0 0 1920 1080"><g mask="url(&quot;#SvgjsMask1058&quot;)" fill="none"><rect width="1920" height="1080" x="0" y="0" fill="rgba(17, 14, 71, 1)"></rect><path d="M1455.05 384.57 a346.79 346.79 0 1 0 693.58 0 a346.79 346.79 0 1 0 -693.58 0z" fill="rgba(255, 255, 255, 0.51)" class="triangle-float1"></path><path d="M143.09 270.29 a299.45 299.45 0 1 0 598.9 0 a299.45 299.45 0 1 0 -598.9 0z" fill="rgba(255, 255, 255, 0.51)" class="triangle-float3"></path><path d="M1294.21 547.31 a261.27 261.27 0 1 0 522.54 0 a261.27 261.27 0 1 0 -522.54 0z" fill="rgba(255, 255, 255, 0.51)" class="triangle-float3"></path><path d="M735.5678640665412 464.18167364615346L575.9619947719098 356.52615546888546 627.9123458892732 623.7875429407849z" fill="rgba(255, 255, 255, 0.51)" class="triangle-float3"></path><path d="M212.01111151109208 565.1360266530319L83.40341228236699 426.95737093639616 32.41167032241546 583.8938156984276z" fill="rgba(255, 255, 255, 0.51)" class="triangle-float3"></path><path d="M1766.8692663847644 566.6426395088251L1674.8566871348578 486.6573246546168 1600.8850044784986 664.6688509565809z" fill="rgba(255, 255, 255, 0.51)" class="triangle-float2"></path><path d="M956.31 352.57 a206.16 206.16 0 1 0 412.32 0 a206.16 206.16 0 1 0 -412.32 0z" fill="rgba(255, 255, 255, 0.51)" class="triangle-float3"></path><path d="M1027.432,1316.531C1095.411,1313.24,1133.437,1245.816,1166.484,1186.319C1198.173,1129.268,1232.438,1063.033,1199.544,1006.668C1166.803,950.565,1092.389,947.646,1027.432,948.052C963.466,948.452,893.878,955.171,859.005,1008.796C821.559,1066.378,829.952,1140.76,862.929,1201.013C897.408,1264.01,955.701,1320.003,1027.432,1316.531" fill="rgba(255, 255, 255, 0.51)" class="triangle-float3"></path><path d="M1484.66 60.31 a352.64 352.64 0 1 0 705.28 0 a352.64 352.64 0 1 0 -705.28 0z" fill="rgba(255, 255, 255, 0.51)" class="triangle-float3"></path><path d="M-136.6100312700303 868.7454255001296L-110.17412588061438 1170.9092067720035 191.98965539125956 1144.4733013825876 165.5537500018436 842.3095201107137z" fill="rgba(255, 255, 255, 0.51)" class="triangle-float3"></path><path d="M563.1252214575396 136.74369149815726L535.5570026671151-59.41437778329299 255.10400814015196 80.01698504306904z" fill="rgba(255, 255, 255, 0.51)" class="triangle-float2"></path><path d="M1110.825,554.538C1164.718,553.576,1216.186,531.01,1244.931,485.412C1275.734,436.55,1287.777,372.41,1256.081,324.122C1226.382,278.875,1164.778,276.82,1110.825,281.103C1065.583,284.695,1026.252,306.899,1000.686,344.397C970.591,388.538,943.358,443.035,968.159,490.354C994.104,539.857,1054.944,555.536,1110.825,554.538" fill="rgba(255, 255, 255, 0.51)" class="triangle-float2"></path><path d="M1841.461239733725 266.57752016673214L1755.1554576200645 29.454332641079333 1518.0322700944116 115.76011475473985 1604.3380522080722 352.8833022803927z" fill="rgba(255, 255, 255, 0.51)" class="triangle-float2"></path><path d="M614.859,709.839C649.072,707.795,682.764,695.036,699.838,665.318C716.856,635.697,711.817,599.717,695.314,569.805C678.145,538.685,650.358,513.047,614.859,511.291C576.415,509.389,539.903,528.57,519.326,561.099C497.191,596.092,487.89,641.803,510.267,676.642C531.454,709.628,575.725,712.177,614.859,709.839" fill="rgba(255, 255, 255, 0.51)" class="triangle-float3"></path></g><defs><mask id="SvgjsMask1058"><rect width="1920" height="1080" fill="#ffffff"></rect></mask><style>
                @keyframes float1 {
                    0%{transform: translate(0, 0)}
                    50%{transform: translate(-10px, 0)}
                    100%{transform: translate(0, 0)}
                }

                .triangle-float1 {
                    animation: float1 5s infinite;
                }

                @keyframes float2 {
                    0%{transform: translate(0, 0)}
                    50%{transform: translate(-5px, -5px)}
                    100%{transform: translate(0, 0)}
                }

                .triangle-float2 {
                    animation: float2 4s infinite;
                }

                @keyframes float3 {
                    0%{transform: translate(0, 0)}
                    50%{transform: translate(0, -10px)}
                    100%{transform: translate(0, 0)}
                }

                .triangle-float3 {
                    animation: float3 6s infinite;
                }
            </style></defs></svg>