<svg xmlns="http://www.w3.org/2000/svg" width="1920" height="1080" preserveAspectRatio="none">
  <g fill="none" mask="url(&quot;#SvgjsMask1296&quot;)">
    <path fill="rgba(174, 174, 174, 0.5)" d="M0 0h1920v1080H0z"/>
    <path fill="rgba(255, 255, 255, 0.51)" d="M1979.879 960.73c101.273-3.53 184.415-73.879 231.811-163.447 44.226-83.577 38.223-180.667-5.293-264.616-47.835-92.281-122.737-176.794-226.518-182.577-112.513-6.27-219.604 56.454-274.912 154.636-54.365 96.508-43.878 214.895 13.311 309.756 55.283 91.7 154.591 149.978 261.601 146.248" class="triangle-float3"/>
    <path fill="rgba(255, 255, 255, 0.51)" d="m593.567 241.038-295.205-57.382-57.382 295.206 295.205 57.382z" class="triangle-float2"/>
    <path fill="rgba(255, 255, 255, 0.51)" d="M263.105 589.346c103.989 8.893 222.128.301 278.765-87.364 60.006-92.88 36.631-215.484-22.908-308.664-55-86.076-153.84-132.763-255.857-127.609-93.729 4.735-171.127 68.251-214.684 151.38-40.374 77.054-35.609 168.007 7.85 243.364 43.498 75.425 120.082 121.474 206.834 128.893M1839.66 413.859c66.062 1.166 115.579-52.207 149.445-108.94 34.989-58.613 61.439-129.227 28.377-188.948-33.812-61.075-108.134-85.127-177.822-81.001-62.762 3.716-115.261 44.568-144.74 100.101-27.603 51.999-22.968 112.482 4.158 164.731 29.801 57.401 75.916 112.916 140.582 114.057" class="triangle-float2"/>
    <path fill="rgba(255, 255, 255, 0.51)" d="M1424.134 735.453c69.6 2.466 137.336-33.393 170.392-94.692 31.651-58.694 16.302-129.219-19.213-185.659-33.012-52.462-89.196-85.428-151.179-85.122-61.45.304-117.744 33.468-148.611 86.604-31.012 53.386-31.112 118.314-2.076 172.8 30.962 58.1 84.893 103.738 150.687 106.069M441.557 524.643c62.748 4.217 128.517-17.499 160.897-71.413 33.179-55.244 24.155-125.36-9.838-180.107-32.128-51.744-90.157-78.267-151.059-79.028-62.423-.78-128.459 20.034-157.742 75.168-28.049 52.811-1.025 113.719 30.4 164.594 29.362 47.536 71.595 87.039 127.342 90.786M2014.954 766.124c104.733 6.37 210.859-36.732 265.005-126.609 55.713-92.479 52.461-211.823-6.719-302.122-54.399-83.004-159.175-107.331-258.286-102.233-89.344 4.596-171.627 48.965-216.028 126.631-44.074 77.095-40.312 170.234 1.536 248.56 44.63 83.532 119.96 150.023 214.492 155.773M1852.408 1295.308c76.149-1.205 136.252-57.544 173.361-124.051 36.019-64.553 47.583-142.297 11.137-206.61-36.907-65.127-109.841-104.77-184.498-99.306-67.268 4.923-108.808 65.126-142.986 123.273-34.853 59.295-69.207 125.946-40.144 188.283 32.921 70.614 105.229 119.644 183.13 118.411M789.735 730.217l55.064 180.107 180.107-55.064-55.065-180.107z" class="triangle-float3"/>
    <path fill="rgba(255, 255, 255, 0.51)" d="m644.12 784.522 54.391 255.894 255.894-54.392-54.392-255.894zM694.926 275.258c64.911 2.178 135.3-11.943 168.751-67.614 34.201-56.919 20.643-130.33-16.907-185.097-33.062-48.221-93.437-58.383-151.844-61.03C629.4-41.453 552.49-47.686 517.208 7.61c-36.766 57.622-10.306 132.389 27.504 189.331 33.478 50.419 89.726 76.287 150.214 78.317" class="triangle-float2"/>
    <path fill="rgba(255, 255, 255, 0.51)" d="m606.55 901.239 48.893-182.472-182.471-48.893-48.893 182.472z" class="triangle-float1"/>
    <path fill="rgba(255, 255, 255, 0.51)" d="M1040.277 829.186 876.424 556.489 603.727 720.342 767.58 993.039z" class="triangle-float3"/>
  </g>
  <defs>
    <mask id="SvgjsMask1296">
      <rect width="1920" height="1080" fill="#ffffff"></rect>
    </mask>
    <style>
      @keyframes float1 {
        0% { transform: translate(0, 0) }
        50% { transform: translate(-10px, 0) }
        100% { transform: translate(0, 0) }
      }
      .triangle-float1 {
        animation: float1 5s infinite;
      }
      @keyframes float2 {
        0% { transform: translate(0, 0) }
        50% { transform: translate(-5px, -5px) }
        100% { transform: translate(0, 0) }
      }
      .triangle-float2 {
        animation: float2 4s infinite;
      }
      @keyframes float3 {
        0% { transform: translate(0, 0) }
        50% { transform: translate(0, -10px) }
        100% { transform: translate(0, 0) }
      }
      .triangle-float3 {
        animation: float3 6s infinite;
      }
    </style>
  </defs>
</svg>
